<?xml version="1.0" encoding="utf-8" standalone="no"?>
<!DOCTYPE svg PUBLIC "-//W3C//DTD SVG 1.1//EN"
  "http://www.w3.org/Graphics/SVG/1.1/DTD/svg11.dtd">
<svg xmlns:xlink="http://www.w3.org/1999/xlink" width="720pt" height="288pt" viewBox="0 0 720 288" xmlns="http://www.w3.org/2000/svg" version="1.1">
 <metadata>
  <rdf:RDF xmlns:dc="http://purl.org/dc/elements/1.1/" xmlns:cc="http://creativecommons.org/ns#" xmlns:rdf="http://www.w3.org/1999/02/22-rdf-syntax-ns#">
   <cc:Work>
    <dc:type rdf:resource="http://purl.org/dc/dcmitype/StillImage"/>
    <dc:date>2026-06-20T15:42:59.868845</dc:date>
    <dc:format>image/svg+xml</dc:format>
    <dc:creator>
     <cc:Agent>
      <dc:title>Matplotlib v3.10.9, https://matplotlib.org/</dc:title>
     </cc:Agent>
    </dc:creator>
   </cc:Work>
  </rdf:RDF>
 </metadata>
 <defs>
  <style type="text/css">*{stroke-linejoin: round; stroke-linecap: butt}</style>
 </defs>
 <g id="figure_1">
  <g id="patch_1">
   <path d="M 0 288 
L 720 288 
L 720 0 
L 0 0 
z
" style="fill: #ffffff"/>
  </g>
  <g id="axes_1">
   <g id="patch_2">
    <path d="M 54.02 260.12 
L 709.2 260.12 
L 709.2 26.88 
L 54.02 26.88 
z
" style="fill: #ffffff"/>
   </g>
   <g id="matplotlib.axis_1">
    <g id="xtick_1">
     <g id="line2d_1">
      <path d="M 83.800909 260.12 
L 83.800909 26.88 
" clip-path="url(#p13ce30cbb5)" style="fill: none; stroke: #b0b0b0; stroke-opacity: 0.3; stroke-width: 0.8; stroke-linecap: square"/>
     </g>
     <g id="line2d_2">
      <defs>
       <path id="mdd35c9bd74" d="M 0 0 
L 0 3.5 
" style="stroke: #000000; stroke-width: 0.8"/>
      </defs>
      <g>
       <use xlink:href="#mdd35c9bd74" x="83.800909" y="260.12" style="stroke: #000000; stroke-width: 0.8"/>
      </g>
     </g>
     <g id="text_1">
      <!-- −20 -->
      <g transform="translate(73.248565 274.718437) scale(0.1 -0.1)">
       <defs>
        <path id="DejaVuSans-2212" d="M 678 2272 
L 4684 2272 
L 4684 1741 
L 678 1741 
L 678 2272 
z
" transform="scale(0.015625)"/>
        <path id="DejaVuSans-32" d="M 1228 531 
L 3431 531 
L 3431 0 
L 469 0 
L 469 531 
Q 828 903 1448 1529 
Q 2069 2156 2228 2338 
Q 2531 2678 2651 2914 
Q 2772 3150 2772 3378 
Q 2772 3750 2511 3984 
Q 2250 4219 1831 4219 
Q 1534 4219 1204 4116 
Q 875 4013 500 3803 
L 500 4441 
Q 881 4594 1212 4672 
Q 1544 4750 1819 4750 
Q 2544 4750 2975 4387 
Q 3406 4025 3406 3419 
Q 3406 3131 3298 2873 
Q 3191 2616 2906 2266 
Q 2828 2175 2409 1742 
Q 1991 1309 1228 531 
z
" transform="scale(0.015625)"/>
        <path id="DejaVuSans-30" d="M 2034 4250 
Q 1547 4250 1301 3770 
Q 1056 3291 1056 2328 
Q 1056 1369 1301 889 
Q 1547 409 2034 409 
Q 2525 409 2770 889 
Q 3016 1369 3016 2328 
Q 3016 3291 2770 3770 
Q 2525 4250 2034 4250 
z
M 2034 4750 
Q 2819 4750 3233 4129 
Q 3647 3509 3647 2328 
Q 3647 1150 3233 529 
Q 2819 -91 2034 -91 
Q 1250 -91 836 529 
Q 422 1150 422 2328 
Q 422 3509 836 4129 
Q 1250 4750 2034 4750 
z
" transform="scale(0.015625)"/>
       </defs>
       <use xlink:href="#DejaVuSans-2212"/>
       <use xlink:href="#DejaVuSans-32" transform="translate(83.789062 0)"/>
       <use xlink:href="#DejaVuSans-30" transform="translate(147.412109 0)"/>
      </g>
     </g>
    </g>
    <g id="xtick_2">
     <g id="line2d_3">
      <path d="M 158.253182 260.12 
L 158.253182 26.88 
" clip-path="url(#p13ce30cbb5)" style="fill: none; stroke: #b0b0b0; stroke-opacity: 0.3; stroke-width: 0.8; stroke-linecap: square"/>
     </g>
     <g id="line2d_4">
      <g>
       <use xlink:href="#mdd35c9bd74" x="158.253182" y="260.12" style="stroke: #000000; stroke-width: 0.8"/>
      </g>
     </g>
     <g id="text_2">
      <!-- 0 -->
      <g transform="translate(155.071932 274.718437) scale(0.1 -0.1)">
       <use xlink:href="#DejaVuSans-30"/>
      </g>
     </g>
    </g>
    <g id="xtick_3">
     <g id="line2d_5">
      <path d="M 232.705455 260.12 
L 232.705455 26.88 
" clip-path="url(#p13ce30cbb5)" style="fill: none; stroke: #b0b0b0; stroke-opacity: 0.3; stroke-width: 0.8; stroke-linecap: square"/>
     </g>
     <g id="line2d_6">
      <g>
       <use xlink:href="#mdd35c9bd74" x="232.705455" y="260.12" style="stroke: #000000; stroke-width: 0.8"/>
      </g>
     </g>
     <g id="text_3">
      <!-- 20 -->
      <g transform="translate(226.342955 274.718437) scale(0.1 -0.1)">
       <use xlink:href="#DejaVuSans-32"/>
       <use xlink:href="#DejaVuSans-30" transform="translate(63.623047 0)"/>
      </g>
     </g>
    </g>
    <g id="xtick_4">
     <g id="line2d_7">
      <path d="M 307.157727 260.12 
L 307.157727 26.88 
" clip-path="url(#p13ce30cbb5)" style="fill: none; stroke: #b0b0b0; stroke-opacity: 0.3; stroke-width: 0.8; stroke-linecap: square"/>
     </g>
     <g id="line2d_8">
      <g>
       <use xlink:href="#mdd35c9bd74" x="307.157727" y="260.12" style="stroke: #000000; stroke-width: 0.8"/>
      </g>
     </g>
     <g id="text_4">
      <!-- 40 -->
      <g transform="translate(300.795227 274.718437) scale(0.1 -0.1)">
       <defs>
        <path id="DejaVuSans-34" d="M 2419 4116 
L 825 1625 
L 2419 1625 
L 2419 4116 
z
M 2253 4666 
L 3047 4666 
L 3047 1625 
L 3713 1625 
L 3713 1100 
L 3047 1100 
L 3047 0 
L 2419 0 
L 2419 1100 
L 313 1100 
L 313 1709 
L 2253 4666 
z
" transform="scale(0.015625)"/>
       </defs>
       <use xlink:href="#DejaVuSans-34"/>
       <use xlink:href="#DejaVuSans-30" transform="translate(63.623047 0)"/>
      </g>
     </g>
    </g>
    <g id="xtick_5">
     <g id="line2d_9">
      <path d="M 381.61 260.12 
L 381.61 26.88 
" clip-path="url(#p13ce30cbb5)" style="fill: none; stroke: #b0b0b0; stroke-opacity: 0.3; stroke-width: 0.8; stroke-linecap: square"/>
     </g>
     <g id="line2d_10">
      <g>
       <use xlink:href="#mdd35c9bd74" x="381.61" y="260.12" style="stroke: #000000; stroke-width: 0.8"/>
      </g>
     </g>
     <g id="text_5">
      <!-- 60 -->
      <g transform="translate(375.2475 274.718437) scale(0.1 -0.1)">
       <defs>
        <path id="DejaVuSans-36" d="M 2113 2584 
Q 1688 2584 1439 2293 
Q 1191 2003 1191 1497 
Q 1191 994 1439 701 
Q 1688 409 2113 409 
Q 2538 409 2786 701 
Q 3034 994 3034 1497 
Q 3034 2003 2786 2293 
Q 2538 2584 2113 2584 
z
M 3366 4563 
L 3366 3988 
Q 3128 4100 2886 4159 
Q 2644 4219 2406 4219 
Q 1781 4219 1451 3797 
Q 1122 3375 1075 2522 
Q 1259 2794 1537 2939 
Q 1816 3084 2150 3084 
Q 2853 3084 3261 2657 
Q 3669 2231 3669 1497 
Q 3669 778 3244 343 
Q 2819 -91 2113 -91 
Q 1303 -91 875 529 
Q 447 1150 447 2328 
Q 447 3434 972 4092 
Q 1497 4750 2381 4750 
Q 2619 4750 2861 4703 
Q 3103 4656 3366 4563 
z
" transform="scale(0.015625)"/>
       </defs>
       <use xlink:href="#DejaVuSans-36"/>
       <use xlink:href="#DejaVuSans-30" transform="translate(63.623047 0)"/>
      </g>
     </g>
    </g>
    <g id="xtick_6">
     <g id="line2d_11">
      <path d="M 456.062273 260.12 
L 456.062273 26.88 
" clip-path="url(#p13ce30cbb5)" style="fill: none; stroke: #b0b0b0; stroke-opacity: 0.3; stroke-width: 0.8; stroke-linecap: square"/>
     </g>
     <g id="line2d_12">
      <g>
       <use xlink:href="#mdd35c9bd74" x="456.062273" y="260.12" style="stroke: #000000; stroke-width: 0.8"/>
      </g>
     </g>
     <g id="text_6">
      <!-- 80 -->
      <g transform="translate(449.699773 274.718437) scale(0.1 -0.1)">
       <defs>
        <path id="DejaVuSans-38" d="M 2034 2216 
Q 1584 2216 1326 1975 
Q 1069 1734 1069 1313 
Q 1069 891 1326 650 
Q 1584 409 2034 409 
Q 2484 409 2743 651 
Q 3003 894 3003 1313 
Q 3003 1734 2745 1975 
Q 2488 2216 2034 2216 
z
M 1403 2484 
Q 997 2584 770 2862 
Q 544 3141 544 3541 
Q 544 4100 942 4425 
Q 1341 4750 2034 4750 
Q 2731 4750 3128 4425 
Q 3525 4100 3525 3541 
Q 3525 3141 3298 2862 
Q 3072 2584 2669 2484 
Q 3125 2378 3379 2068 
Q 3634 1759 3634 1313 
Q 3634 634 3220 271 
Q 2806 -91 2034 -91 
Q 1263 -91 848 271 
Q 434 634 434 1313 
Q 434 1759 690 2068 
Q 947 2378 1403 2484 
z
M 1172 3481 
Q 1172 3119 1398 2916 
Q 1625 2713 2034 2713 
Q 2441 2713 2670 2916 
Q 2900 3119 2900 3481 
Q 2900 3844 2670 4047 
Q 2441 4250 2034 4250 
Q 1625 4250 1398 4047 
Q 1172 3844 1172 3481 
z
" transform="scale(0.015625)"/>
       </defs>
       <use xlink:href="#DejaVuSans-38"/>
       <use xlink:href="#DejaVuSans-30" transform="translate(63.623047 0)"/>
      </g>
     </g>
    </g>
    <g id="xtick_7">
     <g id="line2d_13">
      <path d="M 530.514545 260.12 
L 530.514545 26.88 
" clip-path="url(#p13ce30cbb5)" style="fill: none; stroke: #b0b0b0; stroke-opacity: 0.3; stroke-width: 0.8; stroke-linecap: square"/>
     </g>
     <g id="line2d_14">
      <g>
       <use xlink:href="#mdd35c9bd74" x="530.514545" y="260.12" style="stroke: #000000; stroke-width: 0.8"/>
      </g>
     </g>
     <g id="text_7">
      <!-- 100 -->
      <g transform="translate(520.970795 274.718437) scale(0.1 -0.1)">
       <defs>
        <path id="DejaVuSans-31" d="M 794 531 
L 1825 531 
L 1825 4091 
L 703 3866 
L 703 4441 
L 1819 4666 
L 2450 4666 
L 2450 531 
L 3481 531 
L 3481 0 
L 794 0 
L 794 531 
z
" transform="scale(0.015625)"/>
       </defs>
       <use xlink:href="#DejaVuSans-31"/>
       <use xlink:href="#DejaVuSans-30" transform="translate(63.623047 0)"/>
       <use xlink:href="#DejaVuSans-30" transform="translate(127.246094 0)"/>
      </g>
     </g>
    </g>
    <g id="xtick_8">
     <g id="line2d_15">
      <path d="M 604.966818 260.12 
L 604.966818 26.88 
" clip-path="url(#p13ce30cbb5)" style="fill: none; stroke: #b0b0b0; stroke-opacity: 0.3; stroke-width: 0.8; stroke-linecap: square"/>
     </g>
     <g id="line2d_16">
      <g>
       <use xlink:href="#mdd35c9bd74" x="604.966818" y="260.12" style="stroke: #000000; stroke-width: 0.8"/>
      </g>
     </g>
     <g id="text_8">
      <!-- 120 -->
      <g transform="translate(595.423068 274.718437) scale(0.1 -0.1)">
       <use xlink:href="#DejaVuSans-31"/>
       <use xlink:href="#DejaVuSans-32" transform="translate(63.623047 0)"/>
       <use xlink:href="#DejaVuSans-30" transform="translate(127.246094 0)"/>
      </g>
     </g>
    </g>
    <g id="xtick_9">
     <g id="line2d_17">
      <path d="M 679.419091 260.12 
L 679.419091 26.88 
" clip-path="url(#p13ce30cbb5)" style="fill: none; stroke: #b0b0b0; stroke-opacity: 0.3; stroke-width: 0.8; stroke-linecap: square"/>
     </g>
     <g id="line2d_18">
      <g>
       <use xlink:href="#mdd35c9bd74" x="679.419091" y="260.12" style="stroke: #000000; stroke-width: 0.8"/>
      </g>
     </g>
     <g id="text_9">
      <!-- 140 -->
      <g transform="translate(669.875341 274.718437) scale(0.1 -0.1)">
       <use xlink:href="#DejaVuSans-31"/>
       <use xlink:href="#DejaVuSans-34" transform="translate(63.623047 0)"/>
       <use xlink:href="#DejaVuSans-30" transform="translate(127.246094 0)"/>
      </g>
     </g>
    </g>
   </g>
   <g id="matplotlib.axis_2">
    <g id="ytick_1">
     <g id="line2d_19">
      <path d="M 54.02 251.252335 
L 709.2 251.252335 
" clip-path="url(#p13ce30cbb5)" style="fill: none; stroke: #b0b0b0; stroke-opacity: 0.3; stroke-width: 0.8; stroke-linecap: square"/>
     </g>
     <g id="line2d_20">
      <defs>
       <path id="mb6b130ab24" d="M 0 0 
L -3.5 0 
" style="stroke: #000000; stroke-width: 0.8"/>
      </defs>
      <g>
       <use xlink:href="#mb6b130ab24" x="54.02" y="251.252335" style="stroke: #000000; stroke-width: 0.8"/>
      </g>
     </g>
     <g id="text_10">
      <!-- 7.5 -->
      <g transform="translate(31.116875 255.051554) scale(0.1 -0.1)">
       <defs>
        <path id="DejaVuSans-37" d="M 525 4666 
L 3525 4666 
L 3525 4397 
L 1831 0 
L 1172 0 
L 2766 4134 
L 525 4134 
L 525 4666 
z
" transform="scale(0.015625)"/>
        <path id="DejaVuSans-2e" d="M 684 794 
L 1344 794 
L 1344 0 
L 684 0 
L 684 794 
z
" transform="scale(0.015625)"/>
        <path id="DejaVuSans-35" d="M 691 4666 
L 3169 4666 
L 3169 4134 
L 1269 4134 
L 1269 2991 
Q 1406 3038 1543 3061 
Q 1681 3084 1819 3084 
Q 2600 3084 3056 2656 
Q 3513 2228 3513 1497 
Q 3513 744 3044 326 
Q 2575 -91 1722 -91 
Q 1428 -91 1123 -41 
Q 819 9 494 109 
L 494 744 
Q 775 591 1075 516 
Q 1375 441 1709 441 
Q 2250 441 2565 725 
Q 2881 1009 2881 1497 
Q 2881 1984 2565 2268 
Q 2250 2553 1709 2553 
Q 1456 2553 1204 2497 
Q 953 2441 691 2322 
L 691 4666 
z
" transform="scale(0.015625)"/>
       </defs>
       <use xlink:href="#DejaVuSans-37"/>
       <use xlink:href="#DejaVuSans-2e" transform="translate(63.623047 0)"/>
       <use xlink:href="#DejaVuSans-35" transform="translate(95.410156 0)"/>
      </g>
     </g>
    </g>
    <g id="ytick_2">
     <g id="line2d_21">
      <path d="M 54.02 219.051757 
L 709.2 219.051757 
" clip-path="url(#p13ce30cbb5)" style="fill: none; stroke: #b0b0b0; stroke-opacity: 0.3; stroke-width: 0.8; stroke-linecap: square"/>
     </g>
     <g id="line2d_22">
      <g>
       <use xlink:href="#mb6b130ab24" x="54.02" y="219.051757" style="stroke: #000000; stroke-width: 0.8"/>
      </g>
     </g>
     <g id="text_11">
      <!-- 10.0 -->
      <g transform="translate(24.754375 222.850976) scale(0.1 -0.1)">
       <use xlink:href="#DejaVuSans-31"/>
       <use xlink:href="#DejaVuSans-30" transform="translate(63.623047 0)"/>
       <use xlink:href="#DejaVuSans-2e" transform="translate(127.246094 0)"/>
       <use xlink:href="#DejaVuSans-30" transform="translate(159.033203 0)"/>
      </g>
     </g>
    </g>
    <g id="ytick_3">
     <g id="line2d_23">
      <path d="M 54.02 186.85118 
L 709.2 186.85118 
" clip-path="url(#p13ce30cbb5)" style="fill: none; stroke: #b0b0b0; stroke-opacity: 0.3; stroke-width: 0.8; stroke-linecap: square"/>
     </g>
     <g id="line2d_24">
      <g>
       <use xlink:href="#mb6b130ab24" x="54.02" y="186.85118" style="stroke: #000000; stroke-width: 0.8"/>
      </g>
     </g>
     <g id="text_12">
      <!-- 12.5 -->
      <g transform="translate(24.754375 190.650398) scale(0.1 -0.1)">
       <use xlink:href="#DejaVuSans-31"/>
       <use xlink:href="#DejaVuSans-32" transform="translate(63.623047 0)"/>
       <use xlink:href="#DejaVuSans-2e" transform="translate(127.246094 0)"/>
       <use xlink:href="#DejaVuSans-35" transform="translate(159.033203 0)"/>
      </g>
     </g>
    </g>
    <g id="ytick_4">
     <g id="line2d_25">
      <path d="M 54.02 154.650602 
L 709.2 154.650602 
" clip-path="url(#p13ce30cbb5)" style="fill: none; stroke: #b0b0b0; stroke-opacity: 0.3; stroke-width: 0.8; stroke-linecap: square"/>
     </g>
     <g id="line2d_26">
      <g>
       <use xlink:href="#mb6b130ab24" x="54.02" y="154.650602" style="stroke: #000000; stroke-width: 0.8"/>
      </g>
     </g>
     <g id="text_13">
      <!-- 15.0 -->
      <g transform="translate(24.754375 158.44982) scale(0.1 -0.1)">
       <use xlink:href="#DejaVuSans-31"/>
       <use xlink:href="#DejaVuSans-35" transform="translate(63.623047 0)"/>
       <use xlink:href="#DejaVuSans-2e" transform="translate(127.246094 0)"/>
       <use xlink:href="#DejaVuSans-30" transform="translate(159.033203 0)"/>
      </g>
     </g>
    </g>
    <g id="ytick_5">
     <g id="line2d_27">
      <path d="M 54.02 122.450024 
L 709.2 122.450024 
" clip-path="url(#p13ce30cbb5)" style="fill: none; stroke: #b0b0b0; stroke-opacity: 0.3; stroke-width: 0.8; stroke-linecap: square"/>
     </g>
     <g id="line2d_28">
      <g>
       <use xlink:href="#mb6b130ab24" x="54.02" y="122.450024" style="stroke: #000000; stroke-width: 0.8"/>
      </g>
     </g>
     <g id="text_14">
      <!-- 17.5 -->
      <g transform="translate(24.754375 126.249243) scale(0.1 -0.1)">
       <use xlink:href="#DejaVuSans-31"/>
       <use xlink:href="#DejaVuSans-37" transform="translate(63.623047 0)"/>
       <use xlink:href="#DejaVuSans-2e" transform="translate(127.246094 0)"/>
       <use xlink:href="#DejaVuSans-35" transform="translate(159.033203 0)"/>
      </g>
     </g>
    </g>
    <g id="ytick_6">
     <g id="line2d_29">
      <path d="M 54.02 90.249446 
L 709.2 90.249446 
" clip-path="url(#p13ce30cbb5)" style="fill: none; stroke: #b0b0b0; stroke-opacity: 0.3; stroke-width: 0.8; stroke-linecap: square"/>
     </g>
     <g id="line2d_30">
      <g>
       <use xlink:href="#mb6b130ab24" x="54.02" y="90.249446" style="stroke: #000000; stroke-width: 0.8"/>
      </g>
     </g>
     <g id="text_15">
      <!-- 20.0 -->
      <g transform="translate(24.754375 94.048665) scale(0.1 -0.1)">
       <use xlink:href="#DejaVuSans-32"/>
       <use xlink:href="#DejaVuSans-30" transform="translate(63.623047 0)"/>
       <use xlink:href="#DejaVuSans-2e" transform="translate(127.246094 0)"/>
       <use xlink:href="#DejaVuSans-30" transform="translate(159.033203 0)"/>
      </g>
     </g>
    </g>
    <g id="ytick_7">
     <g id="line2d_31">
      <path d="M 54.02 58.048868 
L 709.2 58.048868 
" clip-path="url(#p13ce30cbb5)" style="fill: none; stroke: #b0b0b0; stroke-opacity: 0.3; stroke-width: 0.8; stroke-linecap: square"/>
     </g>
     <g id="line2d_32">
      <g>
       <use xlink:href="#mb6b130ab24" x="54.02" y="58.048868" style="stroke: #000000; stroke-width: 0.8"/>
      </g>
     </g>
     <g id="text_16">
      <!-- 22.5 -->
      <g transform="translate(24.754375 61.848087) scale(0.1 -0.1)">
       <use xlink:href="#DejaVuSans-32"/>
       <use xlink:href="#DejaVuSans-32" transform="translate(63.623047 0)"/>
       <use xlink:href="#DejaVuSans-2e" transform="translate(127.246094 0)"/>
       <use xlink:href="#DejaVuSans-35" transform="translate(159.033203 0)"/>
      </g>
     </g>
    </g>
    <g id="text_17">
     <!-- Frequency / MHz -->
     <g transform="translate(18.674688 184.890625) rotate(-90) scale(0.1 -0.1)">
      <defs>
       <path id="DejaVuSans-46" d="M 628 4666 
L 3309 4666 
L 3309 4134 
L 1259 4134 
L 1259 2759 
L 3109 2759 
L 3109 2228 
L 1259 2228 
L 1259 0 
L 628 0 
L 628 4666 
z
" transform="scale(0.015625)"/>
       <path id="DejaVuSans-72" d="M 2631 2963 
Q 2534 3019 2420 3045 
Q 2306 3072 2169 3072 
Q 1681 3072 1420 2755 
Q 1159 2438 1159 1844 
L 1159 0 
L 581 0 
L 581 3500 
L 1159 3500 
L 1159 2956 
Q 1341 3275 1631 3429 
Q 1922 3584 2338 3584 
Q 2397 3584 2469 3576 
Q 2541 3569 2628 3553 
L 2631 2963 
z
" transform="scale(0.015625)"/>
       <path id="DejaVuSans-65" d="M 3597 1894 
L 3597 1613 
L 953 1613 
Q 991 1019 1311 708 
Q 1631 397 2203 397 
Q 2534 397 2845 478 
Q 3156 559 3463 722 
L 3463 178 
Q 3153 47 2828 -22 
Q 2503 -91 2169 -91 
Q 1331 -91 842 396 
Q 353 884 353 1716 
Q 353 2575 817 3079 
Q 1281 3584 2069 3584 
Q 2775 3584 3186 3129 
Q 3597 2675 3597 1894 
z
M 3022 2063 
Q 3016 2534 2758 2815 
Q 2500 3097 2075 3097 
Q 1594 3097 1305 2825 
Q 1016 2553 972 2059 
L 3022 2063 
z
" transform="scale(0.015625)"/>
       <path id="DejaVuSans-71" d="M 947 1747 
Q 947 1113 1208 752 
Q 1469 391 1925 391 
Q 2381 391 2643 752 
Q 2906 1113 2906 1747 
Q 2906 2381 2643 2742 
Q 2381 3103 1925 3103 
Q 1469 3103 1208 2742 
Q 947 2381 947 1747 
z
M 2906 525 
Q 2725 213 2448 61 
Q 2172 -91 1784 -91 
Q 1150 -91 751 415 
Q 353 922 353 1747 
Q 353 2572 751 3078 
Q 1150 3584 1784 3584 
Q 2172 3584 2448 3432 
Q 2725 3281 2906 2969 
L 2906 3500 
L 3481 3500 
L 3481 -1331 
L 2906 -1331 
L 2906 525 
z
" transform="scale(0.015625)"/>
       <path id="DejaVuSans-75" d="M 544 1381 
L 544 3500 
L 1119 3500 
L 1119 1403 
Q 1119 906 1312 657 
Q 1506 409 1894 409 
Q 2359 409 2629 706 
Q 2900 1003 2900 1516 
L 2900 3500 
L 3475 3500 
L 3475 0 
L 2900 0 
L 2900 538 
Q 2691 219 2414 64 
Q 2138 -91 1772 -91 
Q 1169 -91 856 284 
Q 544 659 544 1381 
z
M 1991 3584 
L 1991 3584 
z
" transform="scale(0.015625)"/>
       <path id="DejaVuSans-6e" d="M 3513 2113 
L 3513 0 
L 2938 0 
L 2938 2094 
Q 2938 2591 2744 2837 
Q 2550 3084 2163 3084 
Q 1697 3084 1428 2787 
Q 1159 2491 1159 1978 
L 1159 0 
L 581 0 
L 581 3500 
L 1159 3500 
L 1159 2956 
Q 1366 3272 1645 3428 
Q 1925 3584 2291 3584 
Q 2894 3584 3203 3211 
Q 3513 2838 3513 2113 
z
" transform="scale(0.015625)"/>
       <path id="DejaVuSans-63" d="M 3122 3366 
L 3122 2828 
Q 2878 2963 2633 3030 
Q 2388 3097 2138 3097 
Q 1578 3097 1268 2742 
Q 959 2388 959 1747 
Q 959 1106 1268 751 
Q 1578 397 2138 397 
Q 2388 397 2633 464 
Q 2878 531 3122 666 
L 3122 134 
Q 2881 22 2623 -34 
Q 2366 -91 2075 -91 
Q 1284 -91 818 406 
Q 353 903 353 1747 
Q 353 2603 823 3093 
Q 1294 3584 2113 3584 
Q 2378 3584 2631 3529 
Q 2884 3475 3122 3366 
z
" transform="scale(0.015625)"/>
       <path id="DejaVuSans-79" d="M 2059 -325 
Q 1816 -950 1584 -1140 
Q 1353 -1331 966 -1331 
L 506 -1331 
L 506 -850 
L 844 -850 
Q 1081 -850 1212 -737 
Q 1344 -625 1503 -206 
L 1606 56 
L 191 3500 
L 800 3500 
L 1894 763 
L 2988 3500 
L 3597 3500 
L 2059 -325 
z
" transform="scale(0.015625)"/>
       <path id="DejaVuSans-20" transform="scale(0.015625)"/>
       <path id="DejaVuSans-2f" d="M 1625 4666 
L 2156 4666 
L 531 -594 
L 0 -594 
L 1625 4666 
z
" transform="scale(0.015625)"/>
       <path id="DejaVuSans-4d" d="M 628 4666 
L 1569 4666 
L 2759 1491 
L 3956 4666 
L 4897 4666 
L 4897 0 
L 4281 0 
L 4281 4097 
L 3078 897 
L 2444 897 
L 1241 4097 
L 1241 0 
L 628 0 
L 628 4666 
z
" transform="scale(0.015625)"/>
       <path id="DejaVuSans-48" d="M 628 4666 
L 1259 4666 
L 1259 2753 
L 3553 2753 
L 3553 4666 
L 4184 4666 
L 4184 0 
L 3553 0 
L 3553 2222 
L 1259 2222 
L 1259 0 
L 628 0 
L 628 4666 
z
" transform="scale(0.015625)"/>
       <path id="DejaVuSans-7a" d="M 353 3500 
L 3084 3500 
L 3084 2975 
L 922 459 
L 3084 459 
L 3084 0 
L 275 0 
L 275 525 
L 2438 3041 
L 353 3041 
L 353 3500 
z
" transform="scale(0.015625)"/>
      </defs>
      <use xlink:href="#DejaVuSans-46"/>
      <use xlink:href="#DejaVuSans-72" transform="translate(50.269531 0)"/>
      <use xlink:href="#DejaVuSans-65" transform="translate(89.132812 0)"/>
      <use xlink:href="#DejaVuSans-71" transform="translate(150.65625 0)"/>
      <use xlink:href="#DejaVuSans-75" transform="translate(214.132812 0)"/>
      <use xlink:href="#DejaVuSans-65" transform="translate(277.511719 0)"/>
      <use xlink:href="#DejaVuSans-6e" transform="translate(339.035156 0)"/>
      <use xlink:href="#DejaVuSans-63" transform="translate(402.414062 0)"/>
      <use xlink:href="#DejaVuSans-79" transform="translate(457.394531 0)"/>
      <use xlink:href="#DejaVuSans-20" transform="translate(516.574219 0)"/>
      <use xlink:href="#DejaVuSans-2f" transform="translate(548.361328 0)"/>
      <use xlink:href="#DejaVuSans-20" transform="translate(582.052734 0)"/>
      <use xlink:href="#DejaVuSans-4d" transform="translate(613.839844 0)"/>
      <use xlink:href="#DejaVuSans-48" transform="translate(700.119141 0)"/>
      <use xlink:href="#DejaVuSans-7a" transform="translate(775.314453 0)"/>
     </g>
    </g>
   </g>
   <g id="line2d_33">
    <path d="M 83.800909 240.609967 
L 251.318523 195.246142 
L 456.062273 143.566143 
L 604.966818 90.229867 
L 679.419091 54.830517 
" clip-path="url(#p13ce30cbb5)" style="fill: none; stroke: #1f77b4; stroke-opacity: 0.3; stroke-width: 0.5; stroke-linecap: square"/>
   </g>
   <g id="line2d_34">
    <path d="M 83.800909 233.260245 
L 251.318523 199.894041 
L 456.062273 131.014431 
L 604.966818 85.27301 
L 679.419091 68.141526 
" clip-path="url(#p13ce30cbb5)" style="fill: none; stroke: #ff7f0e; stroke-opacity: 0.3; stroke-width: 0.5; stroke-linecap: square"/>
   </g>
   <g id="line2d_35">
    <path d="M 83.800909 243.477874 
L 251.318523 199.633533 
L 456.062273 146.740608 
L 604.966818 96.972568 
L 679.419091 68.381864 
" clip-path="url(#p13ce30cbb5)" style="fill: none; stroke: #2ca02c; stroke-opacity: 0.3; stroke-width: 0.5; stroke-linecap: square"/>
   </g>
   <g id="line2d_36">
    <path d="M 83.800909 235.941589 
L 251.318523 192.375526 
L 456.062273 138.053715 
L 604.966818 100.853194 
L 679.419091 55.757517 
" clip-path="url(#p13ce30cbb5)" style="fill: none; stroke: #d62728; stroke-opacity: 0.3; stroke-width: 0.5; stroke-linecap: square"/>
   </g>
   <g id="line2d_37">
    <path d="M 83.800909 243.811749 
L 251.318523 197.558604 
L 456.062273 141.745967 
L 604.966818 92.273643 
L 679.419091 59.720547 
" clip-path="url(#p13ce30cbb5)" style="fill: none; stroke: #9467bd; stroke-opacity: 0.3; stroke-width: 0.5; stroke-linecap: square"/>
   </g>
   <g id="line2d_38">
    <path d="M 83.800909 238.7458 
L 251.318523 189.617549 
L 456.062273 133.507214 
L 604.966818 99.906985 
L 679.419091 56.108835 
" clip-path="url(#p13ce30cbb5)" style="fill: none; stroke: #8c564b; stroke-opacity: 0.3; stroke-width: 0.5; stroke-linecap: square"/>
   </g>
   <g id="line2d_39">
    <path d="M 83.800909 242.280134 
L 251.318523 198.965326 
L 456.062273 139.12536 
L 604.966818 80.647651 
L 679.419091 62.571945 
" clip-path="url(#p13ce30cbb5)" style="fill: none; stroke: #e377c2; stroke-opacity: 0.3; stroke-width: 0.5; stroke-linecap: square"/>
   </g>
   <g id="line2d_40">
    <path d="M 83.800909 240.774907 
L 251.318523 190.822699 
L 456.062273 136.000148 
L 604.966818 108.412079 
L 679.419091 54.112139 
" clip-path="url(#p13ce30cbb5)" style="fill: none; stroke: #7f7f7f; stroke-opacity: 0.3; stroke-width: 0.5; stroke-linecap: square"/>
   </g>
   <g id="line2d_41">
    <path d="M 83.800909 228.707403 
L 251.318523 206.822949 
L 456.062273 144.716996 
L 604.966818 91.03736 
L 679.419091 59.338461 
" clip-path="url(#p13ce30cbb5)" style="fill: none; stroke: #bcbd22; stroke-opacity: 0.3; stroke-width: 0.5; stroke-linecap: square"/>
   </g>
   <g id="line2d_42">
    <path d="M 83.800909 232.026735 
L 251.318523 198.934857 
L 456.062273 136.720391 
L 604.966818 86.858064 
L 679.419091 37.482566 
" clip-path="url(#p13ce30cbb5)" style="fill: none; stroke: #17becf; stroke-opacity: 0.3; stroke-width: 0.5; stroke-linecap: square"/>
   </g>
   <g id="line2d_43">
    <path d="M 83.800909 246.234086 
L 251.318523 207.012785 
L 456.062273 140.932088 
L 604.966818 88.932051 
L 679.419091 62.866091 
" clip-path="url(#p13ce30cbb5)" style="fill: none; stroke: #1f77b4; stroke-opacity: 0.3; stroke-width: 0.5; stroke-linecap: square"/>
   </g>
   <g id="line2d_44">
    <path d="M 83.800909 241.273753 
L 251.318523 194.427937 
L 456.062273 128.997926 
L 604.966818 74.394826 
L 679.419091 68.162785 
" clip-path="url(#p13ce30cbb5)" style="fill: none; stroke: #ff7f0e; stroke-opacity: 0.3; stroke-width: 0.5; stroke-linecap: square"/>
   </g>
   <g id="line2d_45">
    <path d="M 83.800909 239.161052 
L 251.318523 204.255505 
L 456.062273 137.909746 
L 604.966818 101.570604 
L 679.419091 37.481818 
" clip-path="url(#p13ce30cbb5)" style="fill: none; stroke: #2ca02c; stroke-opacity: 0.3; stroke-width: 0.5; stroke-linecap: square"/>
   </g>
   <g id="line2d_46">
    <path d="M 83.800909 247.345047 
L 251.318523 188.932064 
L 456.062273 135.334601 
L 604.966818 93.534241 
L 679.419091 59.696696 
" clip-path="url(#p13ce30cbb5)" style="fill: none; stroke: #d62728; stroke-opacity: 0.3; stroke-width: 0.5; stroke-linecap: square"/>
   </g>
   <g id="line2d_47">
    <path d="M 83.800909 235.556178 
L 251.318523 194.792038 
L 456.062273 138.775699 
L 604.966818 85.21679 
L 679.419091 61.271348 
" clip-path="url(#p13ce30cbb5)" style="fill: none; stroke: #9467bd; stroke-opacity: 0.3; stroke-width: 0.5; stroke-linecap: square"/>
   </g>
   <g id="line2d_48">
    <path d="M 83.800909 245.38441 
L 251.318523 196.427402 
L 456.062273 137.385554 
L 604.966818 91.018924 
L 679.419091 54.110129 
" clip-path="url(#p13ce30cbb5)" style="fill: none; stroke: #8c564b; stroke-opacity: 0.3; stroke-width: 0.5; stroke-linecap: square"/>
   </g>
   <g id="line2d_49">
    <path d="M 83.800909 226.803816 
L 251.318523 193.94651 
L 456.062273 131.185504 
L 604.966818 80.849829 
L 679.419091 62.912115 
" clip-path="url(#p13ce30cbb5)" style="fill: none; stroke: #e377c2; stroke-opacity: 0.3; stroke-width: 0.5; stroke-linecap: square"/>
   </g>
   <g id="line2d_50">
    <path d="M 83.800909 229.742074 
L 251.318523 208.093403 
L 456.062273 141.095179 
L 604.966818 93.555832 
L 679.419091 76.159931 
" clip-path="url(#p13ce30cbb5)" style="fill: none; stroke: #7f7f7f; stroke-opacity: 0.3; stroke-width: 0.5; stroke-linecap: square"/>
   </g>
   <g id="line2d_51">
    <path d="M 83.800909 235.410105 
L 251.318523 208.750438 
L 456.062273 131.28314 
L 604.966818 100.642232 
L 679.419091 64.78202 
" clip-path="url(#p13ce30cbb5)" style="fill: none; stroke: #bcbd22; stroke-opacity: 0.3; stroke-width: 0.5; stroke-linecap: square"/>
   </g>
   <g id="line2d_52">
    <path d="M 83.800909 230.930067 
L 251.318523 204.662589 
L 456.062273 132.105526 
L 604.966818 94.065912 
L 679.419091 74.688863 
" clip-path="url(#p13ce30cbb5)" style="fill: none; stroke: #17becf; stroke-opacity: 0.3; stroke-width: 0.5; stroke-linecap: square"/>
   </g>
   <g id="line2d_53">
    <path d="M 83.800909 242.748793 
L 251.318523 198.186792 
L 456.062273 140.234651 
L 604.966818 96.035728 
L 679.419091 51.748633 
" clip-path="url(#p13ce30cbb5)" style="fill: none; stroke: #1f77b4; stroke-opacity: 0.3; stroke-width: 0.5; stroke-linecap: square"/>
   </g>
   <g id="line2d_54">
    <path d="M 83.800909 240.640318 
L 251.318523 184.611698 
L 456.062273 138.413967 
L 604.966818 95.055153 
L 679.419091 57.037627 
" clip-path="url(#p13ce30cbb5)" style="fill: none; stroke: #ff7f0e; stroke-opacity: 0.3; stroke-width: 0.5; stroke-linecap: square"/>
   </g>
   <g id="line2d_55">
    <path d="M 83.800909 245.012965 
L 251.318523 198.861473 
L 456.062273 130.285904 
L 604.966818 92.814128 
L 679.419091 66.318962 
" clip-path="url(#p13ce30cbb5)" style="fill: none; stroke: #2ca02c; stroke-opacity: 0.3; stroke-width: 0.5; stroke-linecap: square"/>
   </g>
   <g id="line2d_56">
    <path d="M 83.800909 242.621703 
L 251.318523 200.502897 
L 456.062273 145.096567 
L 604.966818 99.197598 
L 679.419091 64.069152 
" clip-path="url(#p13ce30cbb5)" style="fill: none; stroke: #d62728; stroke-opacity: 0.3; stroke-width: 0.5; stroke-linecap: square"/>
   </g>
   <g id="line2d_57">
    <path d="M 83.800909 236.819508 
L 251.318523 184.207469 
L 456.062273 143.897071 
L 604.966818 102.288542 
L 679.419091 50.837758 
" clip-path="url(#p13ce30cbb5)" style="fill: none; stroke: #9467bd; stroke-opacity: 0.3; stroke-width: 0.5; stroke-linecap: square"/>
   </g>
   <g id="line2d_58">
    <path d="M 83.800909 239.893538 
L 251.318523 204.1682 
L 456.062273 150.443789 
L 604.966818 91.518818 
L 679.419091 45.567927 
" clip-path="url(#p13ce30cbb5)" style="fill: none; stroke: #8c564b; stroke-opacity: 0.3; stroke-width: 0.5; stroke-linecap: square"/>
   </g>
   <g id="line2d_59">
    <path d="M 83.800909 231.46784 
L 251.318523 201.73919 
L 456.062273 144.40383 
L 604.966818 87.124867 
L 679.419091 69.056359 
" clip-path="url(#p13ce30cbb5)" style="fill: none; stroke: #e377c2; stroke-opacity: 0.3; stroke-width: 0.5; stroke-linecap: square"/>
   </g>
   <g id="line2d_60">
    <path d="M 83.800909 241.631491 
L 251.318523 199.724219 
L 456.062273 139.272734 
L 604.966818 86.97172 
L 679.419091 57.352463 
" clip-path="url(#p13ce30cbb5)" style="fill: none; stroke: #7f7f7f; stroke-opacity: 0.3; stroke-width: 0.5; stroke-linecap: square"/>
   </g>
   <g id="line2d_61">
    <path d="M 83.800909 230.870597 
L 251.318523 197.734475 
L 456.062273 131.400695 
L 604.966818 89.801984 
L 679.419091 66.882747 
" clip-path="url(#p13ce30cbb5)" style="fill: none; stroke: #bcbd22; stroke-opacity: 0.3; stroke-width: 0.5; stroke-linecap: square"/>
   </g>
   <g id="line2d_62">
    <path d="M 83.800909 238.660702 
L 251.318523 194.521087 
L 456.062273 141.444408 
L 604.966818 82.58093 
L 679.419091 65.055486 
" clip-path="url(#p13ce30cbb5)" style="fill: none; stroke: #17becf; stroke-opacity: 0.3; stroke-width: 0.5; stroke-linecap: square"/>
   </g>
   <g id="line2d_63">
    <path d="M 83.800909 234.820009 
L 251.318523 200.060421 
L 456.062273 145.135818 
L 604.966818 82.602782 
L 679.419091 63.830731 
" clip-path="url(#p13ce30cbb5)" style="fill: none; stroke: #1f77b4; stroke-opacity: 0.3; stroke-width: 0.5; stroke-linecap: square"/>
   </g>
   <g id="line2d_64">
    <path d="M 83.800909 240.883401 
L 251.318523 201.815563 
L 456.062273 149.720747 
L 604.966818 94.343639 
L 679.419091 52.789189 
" clip-path="url(#p13ce30cbb5)" style="fill: none; stroke: #ff7f0e; stroke-opacity: 0.3; stroke-width: 0.5; stroke-linecap: square"/>
   </g>
   <g id="line2d_65">
    <path d="M 83.800909 238.282639 
L 251.318523 190.551909 
L 456.062273 134.792872 
L 604.966818 90.239657 
L 679.419091 67.537039 
" clip-path="url(#p13ce30cbb5)" style="fill: none; stroke: #2ca02c; stroke-opacity: 0.3; stroke-width: 0.5; stroke-linecap: square"/>
   </g>
   <g id="line2d_66">
    <path d="M 83.800909 246.941871 
L 251.318523 198.960507 
L 456.062273 129.543956 
L 604.966818 99.47044 
L 679.419091 59.70701 
" clip-path="url(#p13ce30cbb5)" style="fill: none; stroke: #d62728; stroke-opacity: 0.3; stroke-width: 0.5; stroke-linecap: square"/>
   </g>
   <g id="line2d_67">
    <path d="M 83.800909 223.828001 
L 251.318523 209.433909 
L 456.062273 132.646607 
L 604.966818 83.259927 
L 679.419091 68.398842 
" clip-path="url(#p13ce30cbb5)" style="fill: none; stroke: #9467bd; stroke-opacity: 0.3; stroke-width: 0.5; stroke-linecap: square"/>
   </g>
   <g id="line2d_68">
    <path d="M 83.800909 234.477741 
L 251.318523 194.325891 
L 456.062273 134.222157 
L 604.966818 93.553823 
L 679.419091 65.388523 
" clip-path="url(#p13ce30cbb5)" style="fill: none; stroke: #8c564b; stroke-opacity: 0.3; stroke-width: 0.5; stroke-linecap: square"/>
   </g>
   <g id="line2d_69">
    <path d="M 83.800909 231.919352 
L 251.318523 196.411022 
L 456.062273 145.011311 
L 604.966818 91.24969 
L 679.419091 56.442169 
" clip-path="url(#p13ce30cbb5)" style="fill: none; stroke: #e377c2; stroke-opacity: 0.3; stroke-width: 0.5; stroke-linecap: square"/>
   </g>
   <g id="line2d_70">
    <path d="M 83.800909 228.222698 
L 251.318523 207.543025 
L 456.062273 142.799254 
L 604.966818 84.42934 
L 679.419091 68.753693 
" clip-path="url(#p13ce30cbb5)" style="fill: none; stroke: #7f7f7f; stroke-opacity: 0.3; stroke-width: 0.5; stroke-linecap: square"/>
   </g>
   <g id="line2d_71">
    <path d="M 83.800909 236.719872 
L 251.318523 211.418891 
L 456.062273 135.138758 
L 604.966818 92.77069 
L 679.419091 53.312118 
" clip-path="url(#p13ce30cbb5)" style="fill: none; stroke: #bcbd22; stroke-opacity: 0.3; stroke-width: 0.5; stroke-linecap: square"/>
   </g>
   <g id="line2d_72">
    <path d="M 83.800909 246.034865 
L 251.318523 199.891661 
L 456.062273 135.480021 
L 604.966818 86.341401 
L 679.419091 71.486284 
" clip-path="url(#p13ce30cbb5)" style="fill: none; stroke: #17becf; stroke-opacity: 0.3; stroke-width: 0.5; stroke-linecap: square"/>
   </g>
   <g id="line2d_73">
    <path d="M 83.800909 232.898193 
L 251.318523 199.20623 
L 456.062273 133.691828 
L 604.966818 89.232546 
L 679.419091 65.340818 
" clip-path="url(#p13ce30cbb5)" style="fill: none; stroke: #1f77b4; stroke-opacity: 0.3; stroke-width: 0.5; stroke-linecap: square"/>
   </g>
   <g id="line2d_74">
    <path d="M 83.800909 231.346772 
L 251.318523 189.169365 
L 456.062273 140.114771 
L 604.966818 84.326937 
L 679.419091 61.316613 
" clip-path="url(#p13ce30cbb5)" style="fill: none; stroke: #ff7f0e; stroke-opacity: 0.3; stroke-width: 0.5; stroke-linecap: square"/>
   </g>
   <g id="line2d_75">
    <path d="M 83.800909 242.921759 
L 251.318523 190.878008 
L 456.062273 141.434154 
L 604.966818 86.337684 
L 679.419091 53.789564 
" clip-path="url(#p13ce30cbb5)" style="fill: none; stroke: #2ca02c; stroke-opacity: 0.3; stroke-width: 0.5; stroke-linecap: square"/>
   </g>
   <g id="line2d_76">
    <path d="M 83.800909 226.567863 
L 251.318523 204.252143 
L 456.062273 155.480022 
L 604.966818 90.496509 
L 679.419091 74.406437 
" clip-path="url(#p13ce30cbb5)" style="fill: none; stroke: #d62728; stroke-opacity: 0.3; stroke-width: 0.5; stroke-linecap: square"/>
   </g>
   <g id="line2d_77">
    <path d="M 83.800909 239.843745 
L 251.318523 207.090977 
L 456.062273 148.328844 
L 604.966818 81.948952 
L 679.419091 62.244895 
" clip-path="url(#p13ce30cbb5)" style="fill: none; stroke: #9467bd; stroke-opacity: 0.3; stroke-width: 0.5; stroke-linecap: square"/>
   </g>
   <g id="line2d_78">
    <path d="M 83.800909 239.435527 
L 251.318523 192.013967 
L 456.062273 138.924245 
L 604.966818 88.402671 
L 679.419091 59.40049 
" clip-path="url(#p13ce30cbb5)" style="fill: none; stroke: #8c564b; stroke-opacity: 0.3; stroke-width: 0.5; stroke-linecap: square"/>
   </g>
   <g id="line2d_79">
    <path d="M 83.800909 231.822222 
L 251.318523 201.639005 
L 456.062273 139.617706 
L 604.966818 89.223718 
L 679.419091 65.064178 
" clip-path="url(#p13ce30cbb5)" style="fill: none; stroke: #e377c2; stroke-opacity: 0.3; stroke-width: 0.5; stroke-linecap: square"/>
   </g>
   <g id="line2d_80">
    <path d="M 83.800909 248.172679 
L 251.318523 207.395371 
L 456.062273 143.237065 
L 604.966818 93.809124 
L 679.419091 48.344457 
" clip-path="url(#p13ce30cbb5)" style="fill: none; stroke: #7f7f7f; stroke-opacity: 0.3; stroke-width: 0.5; stroke-linecap: square"/>
   </g>
   <g id="line2d_81">
    <path d="M 83.800909 239.27467 
L 251.318523 200.304052 
L 456.062273 159.551551 
L 604.966818 88.096576 
L 679.419091 64.407635 
" clip-path="url(#p13ce30cbb5)" style="fill: none; stroke: #bcbd22; stroke-opacity: 0.3; stroke-width: 0.5; stroke-linecap: square"/>
   </g>
   <g id="line2d_82">
    <path d="M 83.800909 227.924171 
L 251.318523 196.756742 
L 456.062273 147.839299 
L 604.966818 96.347966 
L 679.419091 57.412074 
" clip-path="url(#p13ce30cbb5)" style="fill: none; stroke: #17becf; stroke-opacity: 0.3; stroke-width: 0.5; stroke-linecap: square"/>
   </g>
   <g id="line2d_83">
    <path d="M 83.800909 248.974648 
L 251.318523 203.455887 
L 456.062273 144.887291 
L 604.966818 102.551376 
L 679.419091 60.026388 
" clip-path="url(#p13ce30cbb5)" style="fill: none; stroke: #1f77b4; stroke-opacity: 0.3; stroke-width: 0.5; stroke-linecap: square"/>
   </g>
   <g id="line2d_84">
    <path d="M 83.800909 226.337869 
L 251.318523 197.736049 
L 456.062273 142.90236 
L 604.966818 85.661068 
L 679.419091 61.005204 
" clip-path="url(#p13ce30cbb5)" style="fill: none; stroke: #ff7f0e; stroke-opacity: 0.3; stroke-width: 0.5; stroke-linecap: square"/>
   </g>
   <g id="line2d_85">
    <path d="M 83.800909 229.082054 
L 251.318523 193.642281 
L 456.062273 123.257505 
L 604.966818 88.674672 
L 679.419091 65.005183 
" clip-path="url(#p13ce30cbb5)" style="fill: none; stroke: #2ca02c; stroke-opacity: 0.3; stroke-width: 0.5; stroke-linecap: square"/>
   </g>
   <g id="line2d_86">
    <path d="M 83.800909 234.445796 
L 251.318523 191.007802 
L 456.062273 129.910768 
L 604.966818 98.29474 
L 679.419091 55.550034 
" clip-path="url(#p13ce30cbb5)" style="fill: none; stroke: #d62728; stroke-opacity: 0.3; stroke-width: 0.5; stroke-linecap: square"/>
   </g>
   <g id="line2d_87">
    <path d="M 83.800909 225.99873 
L 251.318523 199.985936 
L 456.062273 144.860741 
L 604.966818 85.002937 
L 679.419091 53.765393 
" clip-path="url(#p13ce30cbb5)" style="fill: none; stroke: #9467bd; stroke-opacity: 0.3; stroke-width: 0.5; stroke-linecap: square"/>
   </g>
   <g id="line2d_88">
    <path d="M 83.800909 231.91309 
L 251.318523 185.015994 
L 456.062273 142.434942 
L 604.966818 89.688711 
L 679.419091 59.737949 
" clip-path="url(#p13ce30cbb5)" style="fill: none; stroke: #8c564b; stroke-opacity: 0.3; stroke-width: 0.5; stroke-linecap: square"/>
   </g>
   <g id="line2d_89">
    <path d="M 83.800909 241.973781 
L 251.318523 201.06763 
L 456.062273 147.07605 
L 604.966818 87.91467 
L 679.419091 45.514 
" clip-path="url(#p13ce30cbb5)" style="fill: none; stroke: #e377c2; stroke-opacity: 0.3; stroke-width: 0.5; stroke-linecap: square"/>
   </g>
   <g id="line2d_90">
    <path d="M 83.800909 237.005844 
L 251.318523 210.319407 
L 456.062273 142.744722 
L 604.966818 94.548049 
L 679.419091 56.817492 
" clip-path="url(#p13ce30cbb5)" style="fill: none; stroke: #7f7f7f; stroke-opacity: 0.3; stroke-width: 0.5; stroke-linecap: square"/>
   </g>
   <g id="line2d_91">
    <path d="M 83.800909 239.584988 
L 251.318523 201.665392 
L 456.062273 135.469516 
L 604.966818 85.533446 
L 679.419091 66.352188 
" clip-path="url(#p13ce30cbb5)" style="fill: none; stroke: #bcbd22; stroke-opacity: 0.3; stroke-width: 0.5; stroke-linecap: square"/>
   </g>
   <g id="line2d_92">
    <path d="M 83.800909 227.983326 
L 251.318523 201.575573 
L 456.062273 133.148481 
L 604.966818 77.265525 
L 679.419091 55.780037 
" clip-path="url(#p13ce30cbb5)" style="fill: none; stroke: #17becf; stroke-opacity: 0.3; stroke-width: 0.5; stroke-linecap: square"/>
   </g>
   <g id="line2d_93">
    <path d="M 83.800909 233.976546 
L 251.318523 194.045572 
L 456.062273 152.223907 
L 604.966818 93.644667 
L 679.419091 52.795273 
" clip-path="url(#p13ce30cbb5)" style="fill: none; stroke: #1f77b4; stroke-opacity: 0.3; stroke-width: 0.5; stroke-linecap: square"/>
   </g>
   <g id="line2d_94">
    <path d="M 83.800909 245.342818 
L 251.318523 191.82991 
L 456.062273 150.456193 
L 604.966818 86.643168 
L 679.419091 60.979649 
" clip-path="url(#p13ce30cbb5)" style="fill: none; stroke: #ff7f0e; stroke-opacity: 0.3; stroke-width: 0.5; stroke-linecap: square"/>
   </g>
   <g id="line2d_95">
    <path d="M 83.800909 237.341575 
L 251.318523 203.458316 
L 456.062273 146.913171 
L 604.966818 89.235662 
L 679.419091 67.538869 
" clip-path="url(#p13ce30cbb5)" style="fill: none; stroke: #2ca02c; stroke-opacity: 0.3; stroke-width: 0.5; stroke-linecap: square"/>
   </g>
   <g id="line2d_96">
    <path d="M 83.800909 237.391807 
L 251.318523 196.410488 
L 456.062273 141.952223 
L 604.966818 82.274626 
L 679.419091 58.091608 
" clip-path="url(#p13ce30cbb5)" style="fill: none; stroke: #d62728; stroke-opacity: 0.3; stroke-width: 0.5; stroke-linecap: square"/>
   </g>
   <g id="line2d_97">
    <path d="M 83.800909 241.49817 
L 251.318523 198.222088 
L 456.062273 143.41277 
L 604.966818 84.513359 
L 679.419091 63.843257 
" clip-path="url(#p13ce30cbb5)" style="fill: none; stroke: #9467bd; stroke-opacity: 0.3; stroke-width: 0.5; stroke-linecap: square"/>
   </g>
   <g id="line2d_98">
    <path d="M 83.800909 228.37473 
L 251.318523 205.999897 
L 456.062273 143.001453 
L 604.966818 92.043192 
L 679.419091 54.522881 
" clip-path="url(#p13ce30cbb5)" style="fill: none; stroke: #8c564b; stroke-opacity: 0.3; stroke-width: 0.5; stroke-linecap: square"/>
   </g>
   <g id="line2d_99">
    <path d="M 83.800909 247.502446 
L 251.318523 200.398478 
L 456.062273 136.003284 
L 604.966818 88.309088 
L 679.419091 75.026196 
" clip-path="url(#p13ce30cbb5)" style="fill: none; stroke: #e377c2; stroke-opacity: 0.3; stroke-width: 0.5; stroke-linecap: square"/>
   </g>
   <g id="line2d_100">
    <path d="M 83.800909 228.262686 
L 251.318523 193.136949 
L 456.062273 144.366546 
L 604.966818 79.544987 
L 679.419091 47.25402 
" clip-path="url(#p13ce30cbb5)" style="fill: none; stroke: #7f7f7f; stroke-opacity: 0.3; stroke-width: 0.5; stroke-linecap: square"/>
   </g>
   <g id="line2d_101">
    <path d="M 83.800909 235.261683 
L 251.318523 200.489747 
L 456.062273 148.627587 
L 604.966818 99.426365 
L 679.419091 55.485674 
" clip-path="url(#p13ce30cbb5)" style="fill: none; stroke: #bcbd22; stroke-opacity: 0.3; stroke-width: 0.5; stroke-linecap: square"/>
   </g>
   <g id="line2d_102">
    <path d="M 83.800909 249.518182 
L 251.318523 202.977238 
L 456.062273 138.751261 
L 604.966818 93.303543 
L 679.419091 50.546383 
" clip-path="url(#p13ce30cbb5)" style="fill: none; stroke: #17becf; stroke-opacity: 0.3; stroke-width: 0.5; stroke-linecap: square"/>
   </g>
   <g id="line2d_103">
    <path d="M 83.800909 239.496637 
L 251.318523 196.302325 
L 456.062273 134.073589 
L 604.966818 74.967816 
L 679.419091 63.996605 
" clip-path="url(#p13ce30cbb5)" style="fill: none; stroke: #1f77b4; stroke-opacity: 0.3; stroke-width: 0.5; stroke-linecap: square"/>
   </g>
   <g id="line2d_104">
    <path d="M 83.800909 241.500804 
L 251.318523 186.340798 
L 456.062273 150.600392 
L 604.966818 98.481243 
L 679.419091 52.101506 
" clip-path="url(#p13ce30cbb5)" style="fill: none; stroke: #ff7f0e; stroke-opacity: 0.3; stroke-width: 0.5; stroke-linecap: square"/>
   </g>
   <g id="line2d_105">
    <path d="M 83.800909 233.979566 
L 251.318523 193.504236 
L 456.062273 121.689489 
L 604.966818 74.665109 
L 679.419091 71.793115 
" clip-path="url(#p13ce30cbb5)" style="fill: none; stroke: #2ca02c; stroke-opacity: 0.3; stroke-width: 0.5; stroke-linecap: square"/>
   </g>
   <g id="line2d_106">
    <path d="M 83.800909 243.436413 
L 251.318523 202.981964 
L 456.062273 132.282821 
L 604.966818 81.1782 
L 679.419091 43.054241 
" clip-path="url(#p13ce30cbb5)" style="fill: none; stroke: #d62728; stroke-opacity: 0.3; stroke-width: 0.5; stroke-linecap: square"/>
   </g>
   <g id="line2d_107">
    <path d="M 83.800909 241.798546 
L 251.318523 200.153465 
L 456.062273 154.600549 
L 604.966818 86.615089 
L 679.419091 64.48683 
" clip-path="url(#p13ce30cbb5)" style="fill: none; stroke: #9467bd; stroke-opacity: 0.3; stroke-width: 0.5; stroke-linecap: square"/>
   </g>
   <g id="line2d_108">
    <path d="M 83.800909 233.614959 
L 251.318523 205.451138 
L 456.062273 148.274431 
L 604.966818 94.32318 
L 679.419091 52.100827 
" clip-path="url(#p13ce30cbb5)" style="fill: none; stroke: #8c564b; stroke-opacity: 0.3; stroke-width: 0.5; stroke-linecap: square"/>
   </g>
   <g id="line2d_109">
    <path d="M 83.800909 244.404213 
L 251.318523 198.768002 
L 456.062273 136.510104 
L 604.966818 79.518715 
L 679.419091 59.736015 
" clip-path="url(#p13ce30cbb5)" style="fill: none; stroke: #e377c2; stroke-opacity: 0.3; stroke-width: 0.5; stroke-linecap: square"/>
   </g>
   <g id="line2d_110">
    <path d="M 83.800909 230.063955 
L 251.318523 204.504659 
L 456.062273 145.349358 
L 604.966818 85.793899 
L 679.419091 54.460741 
" clip-path="url(#p13ce30cbb5)" style="fill: none; stroke: #7f7f7f; stroke-opacity: 0.3; stroke-width: 0.5; stroke-linecap: square"/>
   </g>
   <g id="line2d_111">
    <path d="M 83.800909 234.78925 
L 251.318523 194.784034 
L 456.062273 148.983793 
L 604.966818 88.181936 
L 679.419091 58.426932 
" clip-path="url(#p13ce30cbb5)" style="fill: none; stroke: #bcbd22; stroke-opacity: 0.3; stroke-width: 0.5; stroke-linecap: square"/>
   </g>
   <g id="line2d_112">
    <path d="M 83.800909 242.015542 
L 251.318523 216.421261 
L 456.062273 149.415494 
L 604.966818 83.023273 
L 679.419091 53.055271 
" clip-path="url(#p13ce30cbb5)" style="fill: none; stroke: #17becf; stroke-opacity: 0.3; stroke-width: 0.5; stroke-linecap: square"/>
   </g>
   <g id="line2d_113">
    <path d="M 83.800909 228.148206 
L 251.318523 196.042962 
L 456.062273 146.446884 
L 604.966818 86.056496 
L 679.419091 67.846 
" clip-path="url(#p13ce30cbb5)" style="fill: none; stroke: #1f77b4; stroke-opacity: 0.3; stroke-width: 0.5; stroke-linecap: square"/>
   </g>
   <g id="line2d_114">
    <path d="M 83.800909 245.14254 
L 251.318523 199.97609 
L 456.062273 138.240137 
L 604.966818 85.549472 
L 679.419091 64.147287 
" clip-path="url(#p13ce30cbb5)" style="fill: none; stroke: #ff7f0e; stroke-opacity: 0.3; stroke-width: 0.5; stroke-linecap: square"/>
   </g>
   <g id="line2d_115">
    <path d="M 83.800909 240.069708 
L 251.318523 197.888286 
L 456.062273 126.548818 
L 604.966818 98.243475 
L 679.419091 59.416638 
" clip-path="url(#p13ce30cbb5)" style="fill: none; stroke: #2ca02c; stroke-opacity: 0.3; stroke-width: 0.5; stroke-linecap: square"/>
   </g>
   <g id="line2d_116">
    <path d="M 83.800909 236.896029 
L 251.318523 194.712328 
L 456.062273 148.005021 
L 604.966818 96.306706 
L 679.419091 65.031889 
" clip-path="url(#p13ce30cbb5)" style="fill: none; stroke: #d62728; stroke-opacity: 0.3; stroke-width: 0.5; stroke-linecap: square"/>
   </g>
   <g id="line2d_117">
    <path d="M 83.800909 228.901066 
L 251.318523 214.943766 
L 456.062273 150.743777 
L 604.966818 96.779885 
L 679.419091 63.814446 
" clip-path="url(#p13ce30cbb5)" style="fill: none; stroke: #9467bd; stroke-opacity: 0.3; stroke-width: 0.5; stroke-linecap: square"/>
   </g>
   <g id="line2d_118">
    <path d="M 83.800909 243.26514 
L 251.318523 201.23422 
L 456.062273 129.532855 
L 604.966818 97.543496 
L 679.419091 72.349943 
" clip-path="url(#p13ce30cbb5)" style="fill: none; stroke: #8c564b; stroke-opacity: 0.3; stroke-width: 0.5; stroke-linecap: square"/>
   </g>
   <g id="line2d_119">
    <path d="M 83.800909 247.57979 
L 251.318523 183.146073 
L 456.062273 138.410562 
L 604.966818 89.49141 
L 679.419091 64.77331 
" clip-path="url(#p13ce30cbb5)" style="fill: none; stroke: #e377c2; stroke-opacity: 0.3; stroke-width: 0.5; stroke-linecap: square"/>
   </g>
   <g id="line2d_120">
    <path d="M 83.800909 236.587386 
L 251.318523 193.999273 
L 456.062273 142.425114 
L 604.966818 82.303099 
L 679.419091 63.52916 
" clip-path="url(#p13ce30cbb5)" style="fill: none; stroke: #7f7f7f; stroke-opacity: 0.3; stroke-width: 0.5; stroke-linecap: square"/>
   </g>
   <g id="line2d_121">
    <path d="M 83.800909 232.784196 
L 251.318523 209.947142 
L 456.062273 135.635733 
L 604.966818 91.038384 
L 679.419091 60.406656 
" clip-path="url(#p13ce30cbb5)" style="fill: none; stroke: #bcbd22; stroke-opacity: 0.3; stroke-width: 0.5; stroke-linecap: square"/>
   </g>
   <g id="line2d_122">
    <path d="M 83.800909 235.410105 
L 251.318523 202.759036 
L 456.062273 142.396277 
L 604.966818 79.513125 
L 679.419091 71.14608 
" clip-path="url(#p13ce30cbb5)" style="fill: none; stroke: #17becf; stroke-opacity: 0.3; stroke-width: 0.5; stroke-linecap: square"/>
   </g>
   <g id="line2d_123">
    <path d="M 83.800909 238.689391 
L 251.318523 191.631587 
L 456.062273 153.282178 
L 604.966818 103.686014 
L 679.419091 66.645962 
" clip-path="url(#p13ce30cbb5)" style="fill: none; stroke: #1f77b4; stroke-opacity: 0.3; stroke-width: 0.5; stroke-linecap: square"/>
   </g>
   <g id="line2d_124">
    <path d="M 83.800909 243.305889 
L 251.318523 199.128477 
L 456.062273 146.608633 
L 604.966818 81.712145 
L 679.419091 65.693583 
" clip-path="url(#p13ce30cbb5)" style="fill: none; stroke: #ff7f0e; stroke-opacity: 0.3; stroke-width: 0.5; stroke-linecap: square"/>
   </g>
   <g id="line2d_125">
    <path d="M 83.800909 239.544019 
L 251.318523 206.543047 
L 456.062273 154.746576 
L 604.966818 83.925182 
L 679.419091 56.146497 
" clip-path="url(#p13ce30cbb5)" style="fill: none; stroke: #2ca02c; stroke-opacity: 0.3; stroke-width: 0.5; stroke-linecap: square"/>
   </g>
   <g id="line2d_126">
    <path d="M 83.800909 243.683848 
L 251.318523 200.915581 
L 456.062273 124.25913 
L 604.966818 82.824919 
L 679.419091 61.737977 
" clip-path="url(#p13ce30cbb5)" style="fill: none; stroke: #d62728; stroke-opacity: 0.3; stroke-width: 0.5; stroke-linecap: square"/>
   </g>
   <g id="line2d_127">
    <path d="M 83.800909 242.148438 
L 251.318523 202.887883 
L 456.062273 149.396232 
L 604.966818 76.22926 
L 679.419091 59.973637 
" clip-path="url(#p13ce30cbb5)" style="fill: none; stroke: #9467bd; stroke-opacity: 0.3; stroke-width: 0.5; stroke-linecap: square"/>
   </g>
   <g id="line2d_128">
    <path d="M 83.800909 229.693315 
L 251.318523 204.65033 
L 456.062273 142.927468 
L 604.966818 100.646976 
L 679.419091 57.421243 
" clip-path="url(#p13ce30cbb5)" style="fill: none; stroke: #8c564b; stroke-opacity: 0.3; stroke-width: 0.5; stroke-linecap: square"/>
   </g>
   <g id="line2d_129">
    <path d="M 83.800909 235.509163 
L 251.318523 200.130596 
L 456.062273 139.102018 
L 604.966818 83.377824 
L 679.419091 58.708914 
" clip-path="url(#p13ce30cbb5)" style="fill: none; stroke: #e377c2; stroke-opacity: 0.3; stroke-width: 0.5; stroke-linecap: square"/>
   </g>
   <g id="line2d_130">
    <path d="M 83.800909 230.550979 
L 251.318523 200.479968 
L 456.062273 138.955758 
L 604.966818 84.00628 
L 679.419091 58.102038 
" clip-path="url(#p13ce30cbb5)" style="fill: none; stroke: #7f7f7f; stroke-opacity: 0.3; stroke-width: 0.5; stroke-linecap: square"/>
   </g>
   <g id="line2d_131">
    <path d="M 83.800909 240.025494 
L 251.318523 206.382559 
L 456.062273 138.706102 
L 604.966818 84.730696 
L 679.419091 69.671743 
" clip-path="url(#p13ce30cbb5)" style="fill: none; stroke: #bcbd22; stroke-opacity: 0.3; stroke-width: 0.5; stroke-linecap: square"/>
   </g>
   <g id="line2d_132">
    <path d="M 83.800909 233.262285 
L 251.318523 194.071649 
L 456.062273 128.366156 
L 604.966818 91.282404 
L 679.419091 68.451582 
" clip-path="url(#p13ce30cbb5)" style="fill: none; stroke: #17becf; stroke-opacity: 0.3; stroke-width: 0.5; stroke-linecap: square"/>
   </g>
   <g id="line2d_133">
    <path d="M 83.800909 237.692928 
L 251.318523 199.365177 
L 456.062273 140.800275 
L 604.966818 89.715693 
L 679.419091 60.656435 
" clip-path="url(#p13ce30cbb5)" style="fill: none; stroke: #000000; stroke-width: 1.5; stroke-linecap: square"/>
   </g>
   <g id="patch_3">
    <path d="M 54.02 260.12 
L 54.02 26.88 
" style="fill: none; stroke: #000000; stroke-width: 0.8; stroke-linejoin: miter; stroke-linecap: square"/>
   </g>
   <g id="patch_4">
    <path d="M 709.2 260.12 
L 709.2 26.88 
" style="fill: none; stroke: #000000; stroke-width: 0.8; stroke-linejoin: miter; stroke-linecap: square"/>
   </g>
   <g id="patch_5">
    <path d="M 54.02 260.12 
L 709.2 260.12 
" style="fill: none; stroke: #000000; stroke-width: 0.8; stroke-linejoin: miter; stroke-linecap: square"/>
   </g>
   <g id="patch_6">
    <path d="M 54.02 26.88 
L 709.2 26.88 
" style="fill: none; stroke: #000000; stroke-width: 0.8; stroke-linejoin: miter; stroke-linecap: square"/>
   </g>
   <g id="text_18">
    <!-- MC Mismatch Temperature Sweep 100 Runs -->
    <g transform="translate(249.770313 20.88) scale(0.12 -0.12)">
     <defs>
      <path id="DejaVuSans-43" d="M 4122 4306 
L 4122 3641 
Q 3803 3938 3442 4084 
Q 3081 4231 2675 4231 
Q 1875 4231 1450 3742 
Q 1025 3253 1025 2328 
Q 1025 1406 1450 917 
Q 1875 428 2675 428 
Q 3081 428 3442 575 
Q 3803 722 4122 1019 
L 4122 359 
Q 3791 134 3420 21 
Q 3050 -91 2638 -91 
Q 1578 -91 968 557 
Q 359 1206 359 2328 
Q 359 3453 968 4101 
Q 1578 4750 2638 4750 
Q 3056 4750 3426 4639 
Q 3797 4528 4122 4306 
z
" transform="scale(0.015625)"/>
      <path id="DejaVuSans-69" d="M 603 3500 
L 1178 3500 
L 1178 0 
L 603 0 
L 603 3500 
z
M 603 4863 
L 1178 4863 
L 1178 4134 
L 603 4134 
L 603 4863 
z
" transform="scale(0.015625)"/>
      <path id="DejaVuSans-73" d="M 2834 3397 
L 2834 2853 
Q 2591 2978 2328 3040 
Q 2066 3103 1784 3103 
Q 1356 3103 1142 2972 
Q 928 2841 928 2578 
Q 928 2378 1081 2264 
Q 1234 2150 1697 2047 
L 1894 2003 
Q 2506 1872 2764 1633 
Q 3022 1394 3022 966 
Q 3022 478 2636 193 
Q 2250 -91 1575 -91 
Q 1294 -91 989 -36 
Q 684 19 347 128 
L 347 722 
Q 666 556 975 473 
Q 1284 391 1588 391 
Q 1994 391 2212 530 
Q 2431 669 2431 922 
Q 2431 1156 2273 1281 
Q 2116 1406 1581 1522 
L 1381 1569 
Q 847 1681 609 1914 
Q 372 2147 372 2553 
Q 372 3047 722 3315 
Q 1072 3584 1716 3584 
Q 2034 3584 2315 3537 
Q 2597 3491 2834 3397 
z
" transform="scale(0.015625)"/>
      <path id="DejaVuSans-6d" d="M 3328 2828 
Q 3544 3216 3844 3400 
Q 4144 3584 4550 3584 
Q 5097 3584 5394 3201 
Q 5691 2819 5691 2113 
L 5691 0 
L 5113 0 
L 5113 2094 
Q 5113 2597 4934 2840 
Q 4756 3084 4391 3084 
Q 3944 3084 3684 2787 
Q 3425 2491 3425 1978 
L 3425 0 
L 2847 0 
L 2847 2094 
Q 2847 2600 2669 2842 
Q 2491 3084 2119 3084 
Q 1678 3084 1418 2786 
Q 1159 2488 1159 1978 
L 1159 0 
L 581 0 
L 581 3500 
L 1159 3500 
L 1159 2956 
Q 1356 3278 1631 3431 
Q 1906 3584 2284 3584 
Q 2666 3584 2933 3390 
Q 3200 3197 3328 2828 
z
" transform="scale(0.015625)"/>
      <path id="DejaVuSans-61" d="M 2194 1759 
Q 1497 1759 1228 1600 
Q 959 1441 959 1056 
Q 959 750 1161 570 
Q 1363 391 1709 391 
Q 2188 391 2477 730 
Q 2766 1069 2766 1631 
L 2766 1759 
L 2194 1759 
z
M 3341 1997 
L 3341 0 
L 2766 0 
L 2766 531 
Q 2569 213 2275 61 
Q 1981 -91 1556 -91 
Q 1019 -91 701 211 
Q 384 513 384 1019 
Q 384 1609 779 1909 
Q 1175 2209 1959 2209 
L 2766 2209 
L 2766 2266 
Q 2766 2663 2505 2880 
Q 2244 3097 1772 3097 
Q 1472 3097 1187 3025 
Q 903 2953 641 2809 
L 641 3341 
Q 956 3463 1253 3523 
Q 1550 3584 1831 3584 
Q 2591 3584 2966 3190 
Q 3341 2797 3341 1997 
z
" transform="scale(0.015625)"/>
      <path id="DejaVuSans-74" d="M 1172 4494 
L 1172 3500 
L 2356 3500 
L 2356 3053 
L 1172 3053 
L 1172 1153 
Q 1172 725 1289 603 
Q 1406 481 1766 481 
L 2356 481 
L 2356 0 
L 1766 0 
Q 1100 0 847 248 
Q 594 497 594 1153 
L 594 3053 
L 172 3053 
L 172 3500 
L 594 3500 
L 594 4494 
L 1172 4494 
z
" transform="scale(0.015625)"/>
      <path id="DejaVuSans-68" d="M 3513 2113 
L 3513 0 
L 2938 0 
L 2938 2094 
Q 2938 2591 2744 2837 
Q 2550 3084 2163 3084 
Q 1697 3084 1428 2787 
Q 1159 2491 1159 1978 
L 1159 0 
L 581 0 
L 581 4863 
L 1159 4863 
L 1159 2956 
Q 1366 3272 1645 3428 
Q 1925 3584 2291 3584 
Q 2894 3584 3203 3211 
Q 3513 2838 3513 2113 
z
" transform="scale(0.015625)"/>
      <path id="DejaVuSans-54" d="M -19 4666 
L 3928 4666 
L 3928 4134 
L 2272 4134 
L 2272 0 
L 1638 0 
L 1638 4134 
L -19 4134 
L -19 4666 
z
" transform="scale(0.015625)"/>
      <path id="DejaVuSans-70" d="M 1159 525 
L 1159 -1331 
L 581 -1331 
L 581 3500 
L 1159 3500 
L 1159 2969 
Q 1341 3281 1617 3432 
Q 1894 3584 2278 3584 
Q 2916 3584 3314 3078 
Q 3713 2572 3713 1747 
Q 3713 922 3314 415 
Q 2916 -91 2278 -91 
Q 1894 -91 1617 61 
Q 1341 213 1159 525 
z
M 3116 1747 
Q 3116 2381 2855 2742 
Q 2594 3103 2138 3103 
Q 1681 3103 1420 2742 
Q 1159 2381 1159 1747 
Q 1159 1113 1420 752 
Q 1681 391 2138 391 
Q 2594 391 2855 752 
Q 3116 1113 3116 1747 
z
" transform="scale(0.015625)"/>
      <path id="DejaVuSans-53" d="M 3425 4513 
L 3425 3897 
Q 3066 4069 2747 4153 
Q 2428 4238 2131 4238 
Q 1616 4238 1336 4038 
Q 1056 3838 1056 3469 
Q 1056 3159 1242 3001 
Q 1428 2844 1947 2747 
L 2328 2669 
Q 3034 2534 3370 2195 
Q 3706 1856 3706 1288 
Q 3706 609 3251 259 
Q 2797 -91 1919 -91 
Q 1588 -91 1214 -16 
Q 841 59 441 206 
L 441 856 
Q 825 641 1194 531 
Q 1563 422 1919 422 
Q 2459 422 2753 634 
Q 3047 847 3047 1241 
Q 3047 1584 2836 1778 
Q 2625 1972 2144 2069 
L 1759 2144 
Q 1053 2284 737 2584 
Q 422 2884 422 3419 
Q 422 4038 858 4394 
Q 1294 4750 2059 4750 
Q 2388 4750 2728 4690 
Q 3069 4631 3425 4513 
z
" transform="scale(0.015625)"/>
      <path id="DejaVuSans-77" d="M 269 3500 
L 844 3500 
L 1563 769 
L 2278 3500 
L 2956 3500 
L 3675 769 
L 4391 3500 
L 4966 3500 
L 4050 0 
L 3372 0 
L 2619 2869 
L 1863 0 
L 1184 0 
L 269 3500 
z
" transform="scale(0.015625)"/>
      <path id="DejaVuSans-52" d="M 2841 2188 
Q 3044 2119 3236 1894 
Q 3428 1669 3622 1275 
L 4263 0 
L 3584 0 
L 2988 1197 
Q 2756 1666 2539 1819 
Q 2322 1972 1947 1972 
L 1259 1972 
L 1259 0 
L 628 0 
L 628 4666 
L 2053 4666 
Q 2853 4666 3247 4331 
Q 3641 3997 3641 3322 
Q 3641 2881 3436 2590 
Q 3231 2300 2841 2188 
z
M 1259 4147 
L 1259 2491 
L 2053 2491 
Q 2509 2491 2742 2702 
Q 2975 2913 2975 3322 
Q 2975 3731 2742 3939 
Q 2509 4147 2053 4147 
L 1259 4147 
z
" transform="scale(0.015625)"/>
     </defs>
     <use xlink:href="#DejaVuSans-4d"/>
     <use xlink:href="#DejaVuSans-43" transform="translate(86.279297 0)"/>
     <use xlink:href="#DejaVuSans-20" transform="translate(156.103516 0)"/>
     <use xlink:href="#DejaVuSans-4d" transform="translate(187.890625 0)"/>
     <use xlink:href="#DejaVuSans-69" transform="translate(274.169922 0)"/>
     <use xlink:href="#DejaVuSans-73" transform="translate(301.953125 0)"/>
     <use xlink:href="#DejaVuSans-6d" transform="translate(354.052734 0)"/>
     <use xlink:href="#DejaVuSans-61" transform="translate(451.464844 0)"/>
     <use xlink:href="#DejaVuSans-74" transform="translate(512.744141 0)"/>
     <use xlink:href="#DejaVuSans-63" transform="translate(551.953125 0)"/>
     <use xlink:href="#DejaVuSans-68" transform="translate(606.933594 0)"/>
     <use xlink:href="#DejaVuSans-20" transform="translate(670.3125 0)"/>
     <use xlink:href="#DejaVuSans-54" transform="translate(702.099609 0)"/>
     <use xlink:href="#DejaVuSans-65" transform="translate(746.183594 0)"/>
     <use xlink:href="#DejaVuSans-6d" transform="translate(807.707031 0)"/>
     <use xlink:href="#DejaVuSans-70" transform="translate(905.119141 0)"/>
     <use xlink:href="#DejaVuSans-65" transform="translate(968.595703 0)"/>
     <use xlink:href="#DejaVuSans-72" transform="translate(1030.119141 0)"/>
     <use xlink:href="#DejaVuSans-61" transform="translate(1071.232422 0)"/>
     <use xlink:href="#DejaVuSans-74" transform="translate(1132.511719 0)"/>
     <use xlink:href="#DejaVuSans-75" transform="translate(1171.720703 0)"/>
     <use xlink:href="#DejaVuSans-72" transform="translate(1235.099609 0)"/>
     <use xlink:href="#DejaVuSans-65" transform="translate(1273.962891 0)"/>
     <use xlink:href="#DejaVuSans-20" transform="translate(1335.486328 0)"/>
     <use xlink:href="#DejaVuSans-53" transform="translate(1367.273438 0)"/>
     <use xlink:href="#DejaVuSans-77" transform="translate(1430.75 0)"/>
     <use xlink:href="#DejaVuSans-65" transform="translate(1512.537109 0)"/>
     <use xlink:href="#DejaVuSans-65" transform="translate(1574.060547 0)"/>
     <use xlink:href="#DejaVuSans-70" transform="translate(1635.583984 0)"/>
     <use xlink:href="#DejaVuSans-20" transform="translate(1699.060547 0)"/>
     <use xlink:href="#DejaVuSans-31" transform="translate(1730.847656 0)"/>
     <use xlink:href="#DejaVuSans-30" transform="translate(1794.470703 0)"/>
     <use xlink:href="#DejaVuSans-30" transform="translate(1858.09375 0)"/>
     <use xlink:href="#DejaVuSans-20" transform="translate(1921.716797 0)"/>
     <use xlink:href="#DejaVuSans-52" transform="translate(1953.503906 0)"/>
     <use xlink:href="#DejaVuSans-75" transform="translate(2018.486328 0)"/>
     <use xlink:href="#DejaVuSans-6e" transform="translate(2081.865234 0)"/>
     <use xlink:href="#DejaVuSans-73" transform="translate(2145.244141 0)"/>
    </g>
   </g>
  </g>
 </g>
 <defs>
  <clipPath id="p13ce30cbb5">
   <rect x="54.02" y="26.88" width="655.18" height="233.24"/>
  </clipPath>
 </defs>
</svg>
